<svg width="48" height="12" viewBox="0 0 48 12" fill="none" xmlns="http://www.w3.org/2000/svg">
<path d="M0.574875 9.276L1.56688 8.62C1.93488 9.596 3.21488 10.476 4.94288 10.476C6.73488 10.476 7.48688 9.804 7.48688 8.604C7.48688 7.244 5.45488 6.924 4.51088 6.652C3.50288 6.38 0.942875 5.948 0.942875 3.804C0.942875 1.852 2.60688 0.924 4.83088 0.924C6.75088 0.924 8.28688 1.852 8.67088 2.988L7.67888 3.58C7.39088 2.812 6.20688 2.124 4.70288 2.124C3.15088 2.124 2.30288 2.732 2.30288 3.756C2.30288 5.036 4.15887 5.308 5.18288 5.58C6.11088 5.852 8.81488 6.396 8.81488 8.556C8.81488 10.604 7.32688 11.676 4.83088 11.676C2.59088 11.676 1.07088 10.636 0.574875 9.276ZM13.9123 4.012C16.0243 4.012 17.4323 5.628 17.4323 7.82V8.188H11.4003C11.5443 9.66 12.5523 10.636 14.0083 10.636C15.0963 10.636 15.8483 10.14 16.2643 9.516L17.0803 10.108C16.4403 11.052 15.3523 11.644 14.0083 11.644C11.7682 11.644 10.2803 10.012 10.2803 7.82C10.2803 5.628 11.7043 4.012 13.9123 4.012ZM13.9123 4.972C12.4723 4.972 11.5603 5.948 11.4003 7.388H16.3603C16.2003 5.996 15.2883 4.972 13.9123 4.972ZM25.319 4.14H26.487V11.5H25.319V10.172C24.759 11.052 23.831 11.628 22.583 11.628C20.487 11.628 18.999 10.012 18.999 7.82C18.999 5.612 20.487 4.028 22.583 4.028C23.831 4.028 24.759 4.588 25.319 5.468V4.14ZM22.727 10.524C24.311 10.524 25.319 9.388 25.319 7.82C25.319 6.252 24.311 5.132 22.727 5.132C21.159 5.132 20.119 6.252 20.119 7.82C20.119 9.388 21.159 10.524 22.727 10.524ZM29.6406 5.5C30.2006 4.492 31.1926 4.044 32.2326 4.028V5.132C31.0966 5.148 29.6406 5.74 29.6406 7.532V11.5H28.4886V4.14H29.6406V5.5ZM38.8554 6.14C38.4394 5.564 37.7514 5.132 36.7434 5.132C35.1594 5.132 34.1194 6.252 34.1194 7.82C34.1194 9.388 35.1594 10.524 36.7434 10.524C37.7514 10.524 38.4234 10.092 38.8554 9.516L39.7034 10.14C39.0634 11.068 38.0074 11.628 36.7114 11.628C34.5034 11.628 32.9834 10.028 32.9834 7.82C32.9834 5.612 34.5034 4.028 36.7114 4.028C38.0074 4.028 39.0634 4.588 39.7034 5.5L38.8554 6.14ZM44.8524 4.028C46.3244 4.028 47.7804 4.892 47.7804 6.972V11.5H46.6284V7.132C46.6284 5.724 45.6364 5.036 44.5484 5.036C43.4444 5.036 42.4844 5.724 42.4844 7.132V11.5H41.3324V1.1H42.4844V5.132C43.0444 4.364 43.9404 4.028 44.8524 4.028Z" fill="#807D7E"/>
</svg>
